<?xml version="1.0" encoding="UTF-8"?>
<svg width="289px" height="33px" viewBox="0 0 289 33" version="1.1" xmlns="http://www.w3.org/2000/svg" xmlns:xlink="http://www.w3.org/1999/xlink">
    <!-- Generator: Sketch 49.3 (51167) - http://www.bohemiancoding.com/sketch -->
    <title>ULAMPINOY</title>
    <desc>Created with Sketch.</desc>
    <defs></defs>
    <g id="Page-1" stroke="none" stroke-width="1" fill="none" fill-rule="evenodd">
        <path d="M7.06355679,1.45185596 L7.06355679,20.421385 C7.06355679,22.6079149 7.49199202,24.2404009 8.34887535,25.318892 C9.20575867,26.397383 10.6388007,26.9366205 12.6480443,26.9366205 C14.657288,26.9366205 16.09033,26.397383 16.9472133,25.318892 C17.8040966,24.2404009 18.2325319,22.6079149 18.2325319,20.421385 L18.2325319,1.45185596 L24.7920886,1.45185596 L24.7920886,19.7122438 C24.7920886,21.9874167 24.577871,23.9596962 24.1494294,25.6291413 C23.7209877,27.2985864 23.0192403,28.6725339 22.0441662,29.7510249 C21.0690921,30.829516 19.8133336,31.627292 18.2768532,32.1443767 C16.7403727,32.6614615 14.8641219,32.92 12.6480443,32.92 C10.4319668,32.92 8.5557159,32.6614615 7.01923546,32.1443767 C5.48275501,31.627292 4.22699657,30.829516 3.25192244,29.7510249 C2.27684831,28.6725339 1.57510094,27.2985864 1.14665928,25.6291413 C0.718217618,23.9596962 0.504,21.9874167 0.504,19.7122438 L0.504,1.45185596 L7.06355679,1.45185596 Z M35.1337322,32.388144 L35.1337322,1.45185596 L41.8705743,1.45185596 L41.8705743,26.4047645 L53.660048,26.4047645 L53.660048,32.388144 L35.1337322,32.388144 Z M82.1291154,32.388144 L79.9130489,25.0308033 L69.5861791,25.0308033 L67.3701127,32.388144 L60.5446279,32.388144 L70.7385337,1.40753463 L79.0709437,1.40753463 L89.1318855,32.388144 L82.1291154,32.388144 Z M74.816096,7.56819945 L74.5944894,7.56819945 L71.181747,19.3133518 L78.2731597,19.3133518 L74.816096,7.56819945 Z M120.260233,12.0889751 L120.127269,12.0889751 L117.866881,16.6097507 L111.83918,27.5571191 L105.944443,16.654072 L103.595413,11.7787258 L103.462449,11.7787258 L103.462449,32.388144 L97.1244986,32.388144 L97.1244986,1.45185596 L104.260233,1.45185596 L111.83918,15.9449307 L111.927823,15.9449307 L119.418127,1.45185596 L126.598183,1.45185596 L126.598183,32.388144 L120.260233,32.388144 L120.260233,12.0889751 Z M137.117112,32.388144 L137.117112,1.45185596 L151.743151,1.45185596 C153.190988,1.45185596 154.491067,1.69562083 155.643428,2.18315789 C156.795788,2.67069496 157.778234,3.34289507 158.590796,4.19977839 C159.403358,5.05666172 160.031237,6.09820255 160.474452,7.32443213 C160.917668,8.55066172 161.139272,9.88767512 161.139272,11.3355125 C161.139272,12.8128975 160.917668,14.1572977 160.474452,15.3687535 C160.031237,16.5802092 159.403358,17.6143632 158.590796,18.4712465 C157.778234,19.3281299 156.795788,20.00033 155.643428,20.487867 C154.491067,20.9754041 153.190988,21.219169 151.743151,21.219169 L143.853954,21.219169 L143.853954,32.388144 L137.117112,32.388144 Z M143.853954,15.3687535 L150.945367,15.3687535 C151.949988,15.3687535 152.740378,15.110215 153.316558,14.5931302 C153.892738,14.0760454 154.180824,13.3152035 154.180824,12.3105817 L154.180824,10.3604432 C154.180824,9.35582139 153.892738,8.5949795 153.316558,8.07789474 C152.740378,7.56080997 151.949988,7.30227147 150.945367,7.30227147 L143.853954,7.30227147 L143.853954,15.3687535 Z M168.688672,32.388144 L168.688672,27.0252632 L172.677592,27.0252632 L172.677592,6.81473684 L168.688672,6.81473684 L168.688672,1.45185596 L183.403354,1.45185596 L183.403354,6.81473684 L179.414434,6.81473684 L179.414434,27.0252632 L183.403354,27.0252632 L183.403354,32.388144 L168.688672,32.388144 Z M202.16605,17.7621053 L199.196521,11.5571191 L199.063557,11.5571191 L199.063557,32.388144 L192.725607,32.388144 L192.725607,1.45185596 L200.082947,1.45185596 L208.548321,16.0778947 L211.51785,22.2828809 L211.650814,22.2828809 L211.650814,1.45185596 L217.988765,1.45185596 L217.988765,32.388144 L210.631424,32.388144 L202.16605,17.7621053 Z M240.917666,32.92 C238.878874,32.92 237.017397,32.5802065 235.333178,31.9006094 C233.648959,31.2210123 232.215917,30.2090187 231.034009,28.8645983 C229.852101,27.520178 228.936136,25.8507579 228.286087,23.8562881 C227.636037,21.8618183 227.311018,19.5497454 227.311018,16.92 C227.311018,14.2902546 227.636037,11.9781817 228.286087,9.98371191 C228.936136,7.98924211 229.852101,6.31982205 231.034009,4.97540166 C232.215917,3.63098127 233.648959,2.6189877 235.333178,1.93939058 C237.017397,1.25979346 238.878874,0.92 240.917666,0.92 C242.956457,0.92 244.817934,1.25979346 246.502153,1.93939058 C248.186372,2.6189877 249.619414,3.63098127 250.801322,4.97540166 C251.98323,6.31982205 252.899195,7.98924211 253.549245,9.98371191 C254.199294,11.9781817 254.524314,14.2902546 254.524314,16.92 C254.524314,19.5497454 254.199294,21.8618183 253.549245,23.8562881 C252.899195,25.8507579 251.98323,27.520178 250.801322,28.8645983 C249.619414,30.2090187 248.186372,31.2210123 246.502153,31.9006094 C244.817934,32.5802065 242.956457,32.92 240.917666,32.92 Z M240.917666,26.9366205 C242.956457,26.9366205 244.544622,26.2718072 245.682209,24.9421607 C246.819795,23.6125141 247.38858,21.706716 247.38858,19.2247091 L247.38858,14.6152909 C247.38858,12.133284 246.819795,10.2274859 245.682209,8.89783934 C244.544622,7.5681928 242.956457,6.9033795 240.917666,6.9033795 C238.878874,6.9033795 237.290709,7.5681928 236.153123,8.89783934 C235.015536,10.2274859 234.446752,12.133284 234.446752,14.6152909 L234.446752,19.2247091 C234.446752,21.706716 235.015536,23.6125141 236.153123,24.9421607 C237.290709,26.2718072 238.878874,26.9366205 240.917666,26.9366205 Z M271.425514,32.388144 L271.425514,20.2884211 L260.832717,1.45185596 L268.367343,1.45185596 L275.015542,13.7731856 L275.104185,13.7731856 L281.486456,1.45185596 L288.799476,1.45185596 L278.206678,20.2440997 L278.206678,32.388144 L271.425514,32.388144 Z" id="ULAMPINOY" fill="#D0021B"></path>
    </g>
</svg>